<svg xmlns="http://www.w3.org/2000/svg" viewBox="0 0 551.83 64.04"><defs><style>.cls-1{fill:#619dd1;stroke:#619dd1;stroke-miterlimit:10;}.cls-2{fill:#1d1d1b;}</style></defs><g id="Calque_2" data-name="Calque 2"><g id="Calque_1-2" data-name="Calque 1"><path class="cls-1" d="M.64,32.92c3.35,0,6.71,0,10.06-.06a41.85,41.85,0,0,1,25,7.61c7.1,4.9,14,10,21.1,14.94a86,86,0,0,0,8.88,5.26,24.76,24.76,0,0,0,11.82,2.76q146.55-.06,293.1.11a41.14,41.14,0,0,0,24.9-7.87c7.76-5.5,15.46-11.11,23.35-16.42a37.44,37.44,0,0,1,21.85-6.35c35.9.23,71.81.1,107.72.06,1.15,0,3.16.84,2.85-2H548c-36.18,0-72.36-.07-108.54.07a32.1,32.1,0,0,1-18.12-4.95c-8.28-5.4-16.28-11.21-24.42-16.82-2.09-1.43-4.22-2.81-6.4-4.12A31.66,31.66,0,0,0,373.7.57Q227.55.74,81.42.5A39.86,39.86,0,0,0,57.52,8C49.35,13.73,41.27,19.57,33,25.13a36,36,0,0,1-20.87,5.93L.6,31A5.78,5.78,0,0,1,.64,32.92Zm22.67-1C33.05,28.5,40.64,22.63,48.41,17,53.19,13.6,58,10.21,63,7A28.39,28.39,0,0,1,79,2.53q145.88.14,291.74-.08a38.64,38.64,0,0,1,23.41,7.29c1.92,1.36,3.86,2.71,5.77,4.08,9.19,6.59,17.88,14,29.5,18.14C417.46,36.28,408.51,44,398.94,50.81c-2.59,1.83-5.23,3.6-7.88,5.35a31.81,31.81,0,0,1-18.23,5.25q-147.24-.19-294.48,0a27,27,0,0,1-14.5-3.92C61,55.72,58.15,53.92,55.4,52,45.16,44.91,35.77,36.53,23.31,32Z"/><path class="cls-2" d="M429.38,32c-11.62-4.17-20.31-11.55-29.5-18.14C398,12.45,396,11.1,394.11,9.74A38.64,38.64,0,0,0,370.7,2.45Q224.84,2.8,79,2.53A28.39,28.39,0,0,0,63,7C58,10.21,53.19,13.6,48.41,17,40.64,22.63,33.05,28.5,23.31,32,35.77,36.53,45.16,44.91,55.4,52c2.75,1.91,5.59,3.71,8.45,5.45a27,27,0,0,0,14.5,3.92q147.24-.12,294.48,0a31.81,31.81,0,0,0,18.23-5.25c2.65-1.75,5.29-3.52,7.88-5.35C408.51,44,417.46,36.28,429.38,32Z"/></g></g></svg>