<svg xmlns="http://www.w3.org/2000/svg" viewBox="0 0 551.83 64.04"><defs><style>.cls-1{fill:#619dd1;stroke:#619dd1;stroke-miterlimit:10;}.cls-2{fill:#f39200;}</style></defs><g id="Calque_2" data-name="Calque 2"><g id="Calque_1-2" data-name="Calque 1"><path class="cls-1" d="M551.23,31l-11.53,0a35.92,35.92,0,0,1-20.86-5.93c-8.28-5.56-16.36-11.4-24.52-17.13A39.86,39.86,0,0,0,470.41.5Q324.28.85,178.13.57a31.66,31.66,0,0,0-16.81,4.58c-2.17,1.31-4.31,2.69-6.4,4.12-8.14,5.61-16.14,11.42-24.41,16.82A32.13,32.13,0,0,1,112.38,31C76.2,30.9,40,31,3.84,31H.53c-.31,2.83,1.7,2,2.85,2,35.91,0,71.82.17,107.73-.06A37.41,37.41,0,0,1,133,39.25c7.9,5.31,15.59,10.92,23.36,16.42a41.12,41.12,0,0,0,24.9,7.87q146.55-.34,293.09-.11a24.76,24.76,0,0,0,11.82-2.76A86,86,0,0,0,495,55.41c7.09-4.9,14-10,21.1-14.94a41.86,41.86,0,0,1,25-7.61l10.05.06A5.78,5.78,0,0,1,551.23,31ZM496.44,52c-2.76,1.91-5.59,3.71-8.46,5.45a27,27,0,0,1-14.5,3.92q-147.24-.12-294.48,0a31.85,31.85,0,0,1-18.23-5.25c-2.65-1.75-5.29-3.52-7.87-5.35C143.33,44,134.38,36.28,122.46,32c11.61-4.17,20.3-11.55,29.49-18.14,1.92-1.37,3.85-2.72,5.78-4.08a38.59,38.59,0,0,1,23.4-7.29Q327,2.8,472.87,2.53a28.39,28.39,0,0,1,16,4.47c4.94,3.21,9.77,6.6,14.55,10,7.78,5.59,15.36,11.46,25.1,14.91C516.06,36.53,506.67,44.91,496.44,52Z"/><path class="cls-2" d="M122.46,32c11.61-4.17,20.3-11.55,29.49-18.14,1.92-1.37,3.85-2.72,5.78-4.08a38.59,38.59,0,0,1,23.4-7.29Q327,2.8,472.87,2.53a28.39,28.39,0,0,1,16,4.47c4.94,3.21,9.77,6.6,14.55,10,7.78,5.59,15.36,11.46,25.1,14.91-12.46,4.58-21.85,13-32.08,20.06-2.76,1.91-5.59,3.71-8.46,5.45a27,27,0,0,1-14.5,3.92q-147.24-.12-294.48,0a31.85,31.85,0,0,1-18.23-5.25c-2.65-1.75-5.29-3.52-7.87-5.35C143.33,44,134.38,36.28,122.46,32Z"/></g></g></svg>