<svg xmlns="http://www.w3.org/2000/svg" viewBox="0 0 1082.66 117.55"><defs><style>.cls-1{fill:#619dd1;stroke:#619dd1;stroke-miterlimit:10;}.cls-2{fill:#1d1d1b;}</style></defs><g id="Calque_2" data-name="Calque 2"><g id="Calque_1-2" data-name="Calque 1"><path class="cls-1" d="M1081.07,56.8q-37.52,0-75,.19c-16.73.08-31.77-3.2-45.33-11-18-10.28-35.54-21.09-53.27-31.68C891.88,5.08,875.24.46,855.5.5Q538,1.13,220.56.62A78.16,78.16,0,0,0,184,9.1q-7.09,3.62-13.9,7.62c-17.68,10.36-35.07,21.1-53,31.09C105.35,54.34,92.12,57,77.73,57Q39.18,56.83.64,56.82a5.73,5.73,0,0,1,0,2.54c0,.24,0,.49,0,.73a4.69,4.69,0,0,1,0,.53q37.14,0,74.29-.23c17.63-.1,33.26,3.62,47.46,11.75,17.15,9.82,33.87,20.18,50.74,30.36,16.18,9.76,33.52,14.59,54.09,14.55q318.36-.66,636.72-.21a61.72,61.72,0,0,0,25.67-5.1,201.3,201.3,0,0,0,19.3-9.73C924.32,93,939.35,83.45,954.75,74.4c16.28-9.56,33.94-14.24,54.39-14.07q36.36.29,72.73.32A7.9,7.9,0,0,1,1081.07,56.8ZM912,95.72c-6,3.54-12.15,6.86-18.37,10.09-9.63,5-20,7.25-31.5,7.24q-319.86-.22-639.72.06c-14.72,0-27.62-3-39.61-9.71-5.75-3.23-11.48-6.51-17.1-9.9C145,81,125.5,66.65,99.61,58.66c25.23-7.7,44.11-21.35,64.08-33.53,4.16-2.54,8.37-5,12.54-7.55,15.2-9.19,31.55-13.51,50.85-13.47q316.87.61,633.77.14c12.79,0,24.29,2.48,34.75,8.27,10.74,5.93,21.23,12.19,31.62,18.55,16.88,10.34,33.36,21.19,54.52,27.58C954.68,67.1,934.27,82.59,912,95.72Z"/><path class="cls-2" d="M99.61,58.66c25.23-7.7,44.11-21.35,64.08-33.53,4.16-2.54,8.37-5,12.54-7.55,15.2-9.19,31.55-13.51,50.85-13.47q316.87.61,633.77.14c12.79,0,24.29,2.48,34.75,8.27,10.74,5.93,21.23,12.19,31.62,18.55,16.88,10.34,33.36,21.19,54.52,27.58C954.68,67.1,934.27,82.59,912,95.72c-6,3.54-12.15,6.86-18.37,10.09-9.63,5-20,7.25-31.5,7.24q-319.86-.22-639.72.06c-14.72,0-27.62-3-39.61-9.71-5.75-3.23-11.48-6.51-17.1-9.9C145,81,125.5,66.65,99.61,58.66Z"/></g></g></svg>